<svg id="Layer_1" data-name="Layer 1" xmlns="http://www.w3.org/2000/svg" xmlns:xlink="http://www.w3.org/1999/xlink" viewBox="0 0 160 160"><defs><style>.cls-1,.cls-2,.cls-4{fill:none;}.cls-1,.cls-2,.cls-4,.cls-6{stroke:#1d1d1b;}.cls-1,.cls-4{stroke-miterlimit:10;}.cls-1{stroke-width:1.92px;}.cls-2,.cls-6{stroke-linecap:round;stroke-linejoin:round;}.cls-2{stroke-width:2px;}.cls-3{clip-path:url(#clip-path);}.cls-5{clip-path:url(#clip-path-2);}.cls-6{fill:#fcc018;stroke-width:0.97px;}</style><clipPath id="clip-path"><path class="cls-1" d="M122.26,52.39,17,91.21l-2.25-5.36a3.3,3.3,0,0,1,1.89-4.36l102.2-38a1.28,1.28,0,0,1,1.64.74L123,50.72A1.29,1.29,0,0,1,122.26,52.39Z"/></clipPath><clipPath id="clip-path-2"><path class="cls-1" d="M101.52,11.93l-88,69.61-3.8-4.39a3.29,3.29,0,0,1,.44-4.74L95.52,4.54a1.28,1.28,0,0,1,1.79.19l4.41,5.39A1.28,1.28,0,0,1,101.52,11.93Z"/></clipPath></defs><title>icons</title><path class="cls-2" d="M123.4,52.66,17.06,90.71l21.06,54.73a8,8,0,0,0,10.29,4.64L147,113.53Z"/><g class="cls-3"><polygon class="cls-4" points="116.24 40.32 108.19 63.82 96.27 67.09 107.93 39.34 116.24 40.32"/><polygon class="cls-4" points="94.23 50.74 86.19 74.25 74.27 77.52 85.93 49.77 94.23 50.74"/><polygon class="cls-4" points="72.23 61.17 64.19 84.67 52.27 87.94 63.93 60.2 72.23 61.17"/><polygon class="cls-4" points="50.67 68.33 42.63 91.83 30.71 95.1 42.37 67.35 50.67 68.33"/><polygon class="cls-4" points="25.93 70.45 17.89 93.95 5.97 97.22 17.63 69.47 25.93 70.45"/></g><path class="cls-1" d="M122.26,52.39,17,91.21l-2.25-5.36a3.3,3.3,0,0,1,1.89-4.36l102.2-38a1.28,1.28,0,0,1,1.64.74L123,50.72A1.29,1.29,0,0,1,122.26,52.39Z"/><g class="cls-5"><polygon class="cls-4" points="92.05 2.33 91.71 27.17 81.39 33.98 83.85 3.99 92.05 2.33"/><polygon class="cls-4" points="74.37 19.08 74.04 43.92 63.72 50.73 66.18 20.74 74.37 19.08"/><polygon class="cls-4" points="56.7 35.83 56.37 60.66 46.04 67.48 48.51 37.48 56.7 35.83"/><polygon class="cls-4" points="38.44 49.33 38.1 74.17 27.78 80.98 30.24 50.99 38.44 49.33"/><polygon class="cls-4" points="15.58 59.03 15.24 83.87 4.92 90.69 7.38 60.69 15.58 59.03"/></g><path class="cls-1" d="M101.52,11.93l-88,69.61-3.8-4.39a3.29,3.29,0,0,1,.44-4.74L95.52,4.54a1.28,1.28,0,0,1,1.79.19l4.41,5.39A1.28,1.28,0,0,1,101.52,11.93Z"/><path class="cls-6" d="M70.4,91.84l7.82,20.7a1.74,1.74,0,0,0,3,.47l13-16.32a1.75,1.75,0,0,0-1-2.79L72.39,89.51A1.75,1.75,0,0,0,70.4,91.84Z"/></svg>