<svg xmlns="http://www.w3.org/2000/svg" viewBox="0 0 561.41 175.93"><defs><style>.cls-1{fill:none;}.cls-1,.cls-2{stroke:#d1d3d4;stroke-linecap:round;stroke-linejoin:round;}.cls-2{fill:#fff;}</style></defs><g id="Layer_2" data-name="Layer 2"><g id="Layer_1-2" data-name="Layer 1"><path class="cls-1" d="M262.09,98.38a23.81,23.81,0,0,1-10-1.9,29.13,29.13,0,0,1-5.33-3.14,63.73,63.73,0,0,0-8.66-5.69,29.13,29.13,0,0,0-13.42-2.93,29.56,29.56,0,0,0-12.23,2.37,36.14,36.14,0,0,0-6.33,3.7A57.91,57.91,0,0,1,198.25,96a23.46,23.46,0,0,1-10.91,2.34,23.81,23.81,0,0,1-10-1.9,29.13,29.13,0,0,1-5.33-3.14,63.11,63.11,0,0,0-8.66-5.69A29.13,29.13,0,0,0,150,84.72a29.48,29.48,0,0,0-12.22,2.37,35.42,35.42,0,0,0-6.33,3.7A57.91,57.91,0,0,1,123.51,96a23.46,23.46,0,0,1-10.91,2.34,23.81,23.81,0,0,1-10-1.9,29.13,29.13,0,0,1-5.33-3.14,63.11,63.11,0,0,0-8.66-5.69,29.1,29.1,0,0,0-13.42-2.93A29.51,29.51,0,0,0,63,87.09a35.78,35.78,0,0,0-6.33,3.7A57.91,57.91,0,0,1,48.77,96a23.46,23.46,0,0,1-10.91,2.34,23.81,23.81,0,0,1-10-1.9,29.47,29.47,0,0,1-5.33-3.14,62.5,62.5,0,0,0-8.66-5.69A29.09,29.09,0,0,0,.5,84.72"/><path class="cls-2" d="M490.06,85.71V10a4.63,4.63,0,0,0-4.64-4.63H420.1A4.63,4.63,0,0,0,415.47,10v62.8"/><path class="cls-2" d="M494.9,97V5.14A4.63,4.63,0,0,0,490.27.5H425a4.64,4.64,0,0,0-4.64,4.64V72.78"/><line class="cls-2" x1="430.71" y1="12.02" x2="468.07" y2="12.02"/><line class="cls-2" x1="430.71" y1="26.73" x2="462.17" y2="26.73"/><line class="cls-2" x1="430.71" y1="41.45" x2="462.17" y2="41.45"/><line class="cls-2" x1="430.71" y1="34.09" x2="473.69" y2="34.09"/><line class="cls-2" x1="430.71" y1="19.38" x2="449.81" y2="19.38"/><path class="cls-2" d="M465.58,89.75A17.19,17.19,0,0,0,454,59.82"/><path class="cls-2" d="M435,72.78a21.18,21.18,0,0,1,20.32-15.19V78.77h-4.06"/><path class="cls-1" d="M560.91,98.38a23.81,23.81,0,0,1-10-1.9,29.13,29.13,0,0,1-5.33-3.14A63.73,63.73,0,0,0,537,87.65a29.16,29.16,0,0,0-13.42-2.93,29.56,29.56,0,0,0-12.23,2.37,35.78,35.78,0,0,0-6.33,3.7A57.91,57.91,0,0,1,497.07,96a23.46,23.46,0,0,1-10.91,2.34,23.81,23.81,0,0,1-10-1.9,29.13,29.13,0,0,1-5.33-3.14,63.11,63.11,0,0,0-8.66-5.69,29.13,29.13,0,0,0-13.42-2.93,29.56,29.56,0,0,0-12.23,2.37,35.67,35.67,0,0,0-6.32,3.7A58.53,58.53,0,0,1,422.33,96a23.49,23.49,0,0,1-10.91,2.34,23.81,23.81,0,0,1-10-1.9,29.13,29.13,0,0,1-5.33-3.14,63.11,63.11,0,0,0-8.66-5.69,29.13,29.13,0,0,0-13.42-2.93,29.51,29.51,0,0,0-12.22,2.37,35.42,35.42,0,0,0-6.33,3.7A57.91,57.91,0,0,1,347.59,96a23.46,23.46,0,0,1-10.91,2.34,23.81,23.81,0,0,1-10-1.9,29.13,29.13,0,0,1-5.33-3.14,62.5,62.5,0,0,0-8.66-5.69,29.09,29.09,0,0,0-13.41-2.93,29.56,29.56,0,0,0-12.23,2.37,35.67,35.67,0,0,0-6.32,3.7A57.91,57.91,0,0,1,272.86,96,23.44,23.44,0,0,1,262,98.38a23.78,23.78,0,0,1-10-1.9,28.8,28.8,0,0,1-5.33-3.14"/><path class="cls-1" d="M537.22,70.23a4.89,4.89,0,0,1-2-.39,5.67,5.67,0,0,1-1.09-.64A13.4,13.4,0,0,0,532.31,68a6,6,0,0,0-2.74-.6,6.19,6.19,0,0,0-2.51.49,6.86,6.86,0,0,0-1.29.76,12.56,12.56,0,0,1-1.62,1.07,4.81,4.81,0,0,1-2.24.48,4.93,4.93,0,0,1-2-.39,6,6,0,0,1-1.09-.64A13.25,13.25,0,0,0,517,68a6.61,6.61,0,0,0-5.25-.11,7.3,7.3,0,0,0-1.3.76,12.56,12.56,0,0,1-1.62,1.07,4.77,4.77,0,0,1-2.23.48,4.89,4.89,0,0,1-2-.39,5.67,5.67,0,0,1-1.09-.64A14.09,14.09,0,0,0,501.7,68a6,6,0,0,0-2.74-.6,6.19,6.19,0,0,0-2.51.49,6.86,6.86,0,0,0-1.29.76"/><path class="cls-1" d="M537.22,66.15a5.06,5.06,0,0,1-2-.39,6.28,6.28,0,0,1-1.09-.65A12.48,12.48,0,0,0,532.31,64a5.92,5.92,0,0,0-2.74-.6,6.2,6.2,0,0,0-2.51.48,6.86,6.86,0,0,0-1.29.76,12.67,12.67,0,0,1-1.62,1.08,4.94,4.94,0,0,1-2.24.48,5.1,5.1,0,0,1-2-.39,6.68,6.68,0,0,1-1.09-.65A12.34,12.34,0,0,0,517,64a6,6,0,0,0-2.75-.6,6.11,6.11,0,0,0-2.5.48,7.3,7.3,0,0,0-1.3.76,12.67,12.67,0,0,1-1.62,1.08,4.89,4.89,0,0,1-2.23.48,5.06,5.06,0,0,1-2-.39,6.28,6.28,0,0,1-1.09-.65A13.07,13.07,0,0,0,501.7,64a5.92,5.92,0,0,0-2.74-.6,6.2,6.2,0,0,0-2.51.48,6.86,6.86,0,0,0-1.29.76"/><path class="cls-1" d="M537.22,62.07a4.89,4.89,0,0,1-2-.39,6.28,6.28,0,0,1-1.09-.65,12.48,12.48,0,0,0-1.78-1.16,5.92,5.92,0,0,0-2.74-.6,6.2,6.2,0,0,0-2.51.48,7.44,7.44,0,0,0-1.29.76,11.69,11.69,0,0,1-1.62,1.08,5.5,5.5,0,0,1-4.28.09,6.68,6.68,0,0,1-1.09-.65A12.34,12.34,0,0,0,517,59.87a6,6,0,0,0-2.75-.6,6.11,6.11,0,0,0-2.5.48,8,8,0,0,0-1.3.76,11.69,11.69,0,0,1-1.62,1.08,5.47,5.47,0,0,1-4.27.09,6.93,6.93,0,0,1-1.09-.64,12.2,12.2,0,0,0-1.78-1.17,5.92,5.92,0,0,0-2.74-.6,6.2,6.2,0,0,0-2.51.48,7.44,7.44,0,0,0-1.29.76"/><path class="cls-1" d="M537.22,58.28a4.89,4.89,0,0,1-2-.39,5.67,5.67,0,0,1-1.09-.64,12.48,12.48,0,0,0-1.78-1.17,5.92,5.92,0,0,0-2.74-.6,6,6,0,0,0-2.51.49,7.43,7.43,0,0,0-1.29.75,11.69,11.69,0,0,1-1.62,1.08,4.81,4.81,0,0,1-2.24.48,4.93,4.93,0,0,1-2-.39,6,6,0,0,1-1.09-.64A12.34,12.34,0,0,0,517,56.08a6.61,6.61,0,0,0-5.25-.11,7.94,7.94,0,0,0-1.3.75,11.69,11.69,0,0,1-1.62,1.08,4.77,4.77,0,0,1-2.23.48,4.89,4.89,0,0,1-2-.39,5.67,5.67,0,0,1-1.09-.64,13.08,13.08,0,0,0-1.78-1.17,5.92,5.92,0,0,0-2.74-.6,6,6,0,0,0-2.51.49,7.43,7.43,0,0,0-1.29.75"/><path class="cls-1" d="M537.22,54.19a4.89,4.89,0,0,1-2-.39,5.67,5.67,0,0,1-1.09-.64A13.4,13.4,0,0,0,532.31,52a6.61,6.61,0,0,0-5.25-.11,6.86,6.86,0,0,0-1.29.76,12.56,12.56,0,0,1-1.62,1.07,4.81,4.81,0,0,1-2.24.48,4.93,4.93,0,0,1-2-.39,6,6,0,0,1-1.09-.64A13.25,13.25,0,0,0,517,52a6.09,6.09,0,0,0-2.75-.6,5.94,5.94,0,0,0-2.5.49,7.3,7.3,0,0,0-1.3.76,12.56,12.56,0,0,1-1.62,1.07,4.77,4.77,0,0,1-2.23.48,4.89,4.89,0,0,1-2-.39,5.67,5.67,0,0,1-1.09-.64A14.09,14.09,0,0,0,501.7,52a6.61,6.61,0,0,0-5.25-.11,6.86,6.86,0,0,0-1.29.76"/><line class="cls-1" x1="360.97" y1="127.55" x2="391.66" y2="127.55"/><line class="cls-1" x1="446.44" y1="164.32" x2="551.42" y2="164.32"/><line class="cls-1" x1="94.84" y1="164.32" x2="202.25" y2="164.32"/><line class="cls-1" x1="383.69" y1="175.43" x2="463.26" y2="175.43"/><line class="cls-1" x1="408.43" y1="127.55" x2="524.54" y2="127.55"/><line class="cls-1" x1="323.86" y1="153.57" x2="415.5" y2="153.57"/><line class="cls-1" x1="286.23" y1="153.57" x2="314.85" y2="153.57"/><line class="cls-1" x1="64.69" y1="151.06" x2="138.59" y2="151.06"/><line class="cls-1" x1="150.46" y1="151.06" x2="170.89" y2="151.06"/><line class="cls-1" x1="194.49" y1="132.07" x2="298.51" y2="132.07"/><line class="cls-1" x1="145.29" y1="132.07" x2="186.48" y2="132.07"/><line class="cls-1" x1="81.6" y1="115.94" x2="116.5" y2="115.94"/><line class="cls-1" x1="477.49" y1="175.43" x2="499.65" y2="175.43"/><line class="cls-1" x1="477.49" y1="142.46" x2="504.47" y2="142.46"/></g></g></svg>