<svg id="Layer_1" data-name="Layer 1" xmlns="http://www.w3.org/2000/svg" viewBox="0 0 160 160"><defs><style>.cls-1{fill:none;}.cls-1,.cls-2{stroke:#1d1d1b;stroke-miterlimit:10;stroke-width:2px;}.cls-2{fill:#fcc018;}</style></defs><title>icons</title><path class="cls-1" d="M8,86.9v-62a9.8,9.8,0,0,1,9.8-9.8H124.52a9.79,9.79,0,0,1,9.79,9.8V51.4"/><path class="cls-1" d="M74.28,117.84H17.84A9.79,9.79,0,0,1,8,108.05V66.11"/><circle class="cls-1" cx="20.79" cy="25.12" r="4.62"/><circle class="cls-1" cx="35.35" cy="25.12" r="4.62"/><line class="cls-1" x1="8.21" y1="33.6" x2="133.94" y2="33.6"/><path class="cls-1" d="M103.85,64.9c-2.18.89-4,1.62-4,1.64s.46,2.29,1.06,5.06S102,76.68,102,76.73s-.66.6-1.4,1.22A26.91,26.91,0,0,0,97,81.7l-.3.4-4.89-1.16c-2.7-.64-5-1.15-5.11-1.12a25.47,25.47,0,0,0-1.86,4c-1.46,3.51-1.62,4-1.41,4.11l4.38,2.84,4.13,2.67-.11,1a37.65,37.65,0,0,0,0,5.62l.1,1-4.31,2.66c-2.37,1.46-4.35,2.72-4.4,2.8a66.88,66.88,0,0,0,3.27,8c.15.06,4.55-.85,9-1.86l1.11-.25,1.1,1.33a27.57,27.57,0,0,0,3.83,3.71l.41.32-1.19,5.06c-.66,2.78-1.17,5.09-1.14,5.12.19.17,7.92,3.29,8,3.24s1.36-2,2.88-4.39l2.77-4.32,1,.1a45.16,45.16,0,0,0,5.49,0l1.08-.07,2.5,4c1.37,2.18,2.63,4.16,2.79,4.41l.29.45,4-1.62c3-1.21,4-1.69,4-1.87s-.52-2.46-1.15-5.16l-1.15-4.93.52-.39a26.14,26.14,0,0,0,3.61-3.41c.56-.66,1.06-1.26,1.1-1.33s2.38.4,5.19,1,5.15,1.13,5.19,1.09,3.32-7.91,3.27-8-2-1.32-4.43-2.83l-4.38-2.74.1-1a47.89,47.89,0,0,0,0-5.63l-.08-.88L146.44,91l4.44-2.81c.15-.09-.17-1-1.44-4.12-.9-2.21-1.66-4-1.68-4s-2.32.5-5.13,1.15l-5.1,1.18-.28-.35a29.25,29.25,0,0,0-3.57-3.81,6.81,6.81,0,0,1-1.36-1.38c0-.12.49-2.37,1.09-5s1.1-4.87,1.1-4.93a78,78,0,0,0-8-3.35c-.08,0-1.35,2-2.82,4.4L121,72.18l-1-.11a49,49,0,0,0-5.82,0l-.79.07-2.73-4.42c-1.5-2.43-2.76-4.41-2.8-4.41s-1.85.73-4,1.63Z"/><path class="cls-2" d="M120,85.5a12.52,12.52,0,0,1,6.41,4,15.54,15.54,0,0,1,2.49,4.8,11.15,11.15,0,0,1,.25,3.14,8.36,8.36,0,0,1-.41,3.44,12.31,12.31,0,0,1-8.73,8.28,14.67,14.67,0,0,1-6,0,12.11,12.11,0,0,1-8.78-9.06,9.49,9.49,0,0,1-.24-3.19,9,9,0,0,1,.53-3.3,12.23,12.23,0,0,1,10.11-8.34,13.18,13.18,0,0,1,4.38.3Z"/></svg>