<svg xmlns="http://www.w3.org/2000/svg" viewBox="0 0 122.75 97.48"><defs><style>.cls-1{fill:#fff;}.cls-1,.cls-2{stroke:#d1d3d4;stroke-linecap:round;stroke-linejoin:round;}.cls-2{fill:none;}</style></defs><g id="Layer_2" data-name="Layer 2"><g id="Layer_1-2" data-name="Layer 1"><path class="cls-1" d="M75.09,85.71V10a4.63,4.63,0,0,0-4.64-4.63H5.14A4.63,4.63,0,0,0,.5,10v62.8"/><path class="cls-1" d="M5.63,97s0-1.85-.28-24.2V5.14A4.63,4.63,0,0,1,10,.5H75.3a4.64,4.64,0,0,1,4.64,4.64V97"/><line class="cls-1" x1="15.74" y1="26.73" x2="47.21" y2="26.73"/><line class="cls-1" x1="15.74" y1="41.45" x2="47.21" y2="41.45"/><line class="cls-1" x1="15.74" y1="34.09" x2="58.72" y2="34.09"/><path class="cls-1" d="M50.62,89.75A17.2,17.2,0,0,0,39.07,59.82"/><path class="cls-1" d="M20,72.78A21.19,21.19,0,0,1,40.36,57.59V78.77H36.3"/><path class="cls-2" d="M122.25,35.51a4.89,4.89,0,0,1-2-.39,6,6,0,0,1-1.09-.64,13.93,13.93,0,0,0-1.77-1.17,6.12,6.12,0,0,0-2.75-.6,6,6,0,0,0-2.51.49,7.19,7.19,0,0,0-1.29.76A12.56,12.56,0,0,1,109.18,35a4.81,4.81,0,0,1-2.24.48,4.93,4.93,0,0,1-2-.39,6,6,0,0,1-1.09-.64A13.25,13.25,0,0,0,102,33.31a6.61,6.61,0,0,0-5.25-.11,7.3,7.3,0,0,0-1.3.76A12.56,12.56,0,0,1,93.87,35a4.77,4.77,0,0,1-2.23.48,4.89,4.89,0,0,1-2-.39,5.67,5.67,0,0,1-1.09-.64,13.4,13.4,0,0,0-1.78-1.17,6.61,6.61,0,0,0-5.25-.11,7.19,7.19,0,0,0-1.29.76"/><path class="cls-2" d="M122.25,31.42a4.89,4.89,0,0,1-2-.39,6,6,0,0,1-1.09-.64,13.93,13.93,0,0,0-1.77-1.17,6.12,6.12,0,0,0-2.75-.6,6.19,6.19,0,0,0-2.51.49,7.19,7.19,0,0,0-1.29.76,12.56,12.56,0,0,1-1.62,1.07,4.81,4.81,0,0,1-2.24.48,4.93,4.93,0,0,1-2-.39,6,6,0,0,1-1.09-.64A13.25,13.25,0,0,0,102,29.22a6.06,6.06,0,0,0-2.75-.6,6.17,6.17,0,0,0-2.5.49,7.3,7.3,0,0,0-1.3.76,12.56,12.56,0,0,1-1.62,1.07,4.77,4.77,0,0,1-2.23.48,4.89,4.89,0,0,1-2-.39,5.67,5.67,0,0,1-1.09-.64,13.4,13.4,0,0,0-1.78-1.17,6,6,0,0,0-2.74-.6,6.19,6.19,0,0,0-2.51.49,7.19,7.19,0,0,0-1.29.76"/><path class="cls-2" d="M122.25,27.34a4.91,4.91,0,0,1-2-.38,6.68,6.68,0,0,1-1.09-.65,12.93,12.93,0,0,0-1.77-1.16,5.87,5.87,0,0,0-2.75-.6,6,6,0,0,0-2.51.48,7.19,7.19,0,0,0-1.29.76,12.56,12.56,0,0,1-1.62,1.07,4.69,4.69,0,0,1-2.24.48,4.94,4.94,0,0,1-2-.38,6.68,6.68,0,0,1-1.09-.65A12.34,12.34,0,0,0,102,25.15a5.81,5.81,0,0,0-2.75-.6,6,6,0,0,0-2.5.48,7.3,7.3,0,0,0-1.3.76,12.56,12.56,0,0,1-1.62,1.07,4.64,4.64,0,0,1-2.23.48,4.91,4.91,0,0,1-2-.38,6.28,6.28,0,0,1-1.09-.65,12.48,12.48,0,0,0-1.78-1.16,5.79,5.79,0,0,0-2.74-.6,6,6,0,0,0-2.51.48,7.19,7.19,0,0,0-1.29.76"/><path class="cls-2" d="M122.25,23.56a5.06,5.06,0,0,1-2-.39,6.68,6.68,0,0,1-1.09-.65,12.93,12.93,0,0,0-1.77-1.16,5.87,5.87,0,0,0-2.75-.6,6.2,6.2,0,0,0-2.51.48,7.19,7.19,0,0,0-1.29.76,12.67,12.67,0,0,1-1.62,1.08,4.94,4.94,0,0,1-2.24.48,5.1,5.1,0,0,1-2-.39,6.68,6.68,0,0,1-1.09-.65A12.34,12.34,0,0,0,102,21.36a5.81,5.81,0,0,0-2.75-.6,6.18,6.18,0,0,0-2.5.48,7.3,7.3,0,0,0-1.3.76,12.67,12.67,0,0,1-1.62,1.08,4.89,4.89,0,0,1-2.23.48,5.06,5.06,0,0,1-2-.39,6.28,6.28,0,0,1-1.09-.65,12.48,12.48,0,0,0-1.78-1.16,5.79,5.79,0,0,0-2.74-.6,6.2,6.2,0,0,0-2.51.48,7.19,7.19,0,0,0-1.29.76"/><path class="cls-2" d="M122.25,19.47a4.89,4.89,0,0,1-2-.39,6,6,0,0,1-1.09-.64,12.93,12.93,0,0,0-1.77-1.17,6.64,6.64,0,0,0-5.26-.11,7.83,7.83,0,0,0-1.29.75A11.69,11.69,0,0,1,109.18,19a4.81,4.81,0,0,1-2.24.48,4.93,4.93,0,0,1-2-.39,6,6,0,0,1-1.09-.64A12.34,12.34,0,0,0,102,17.27a5.93,5.93,0,0,0-2.75-.6,6,6,0,0,0-2.5.49,7.94,7.94,0,0,0-1.3.75A11.69,11.69,0,0,1,93.87,19a4.77,4.77,0,0,1-2.23.48,4.89,4.89,0,0,1-2-.39,5.67,5.67,0,0,1-1.09-.64,12.48,12.48,0,0,0-1.78-1.17,5.92,5.92,0,0,0-2.74-.6,6,6,0,0,0-2.51.49,7.83,7.83,0,0,0-1.29.75"/></g></g></svg>