<?xml version="1.0" encoding="utf-8"?>
<!-- Generator: Adobe Illustrator 16.0.0, SVG Export Plug-In . SVG Version: 6.00 Build 0)  -->
<!DOCTYPE svg PUBLIC "-//W3C//DTD SVG 1.1//EN" "http://www.w3.org/Graphics/SVG/1.1/DTD/svg11.dtd">
<svg version="1.1" id="Layer_1" xmlns="http://www.w3.org/2000/svg" xmlns:xlink="http://www.w3.org/1999/xlink" x="0px" y="0px"
	 width="160px" height="98px" viewBox="0 0 160 98" enable-background="new 0 0 160 98" xml:space="preserve">
<path d="M62.643,28.191c-0.343,0-0.686-0.127-0.947-0.382c-2.178-2.122-3.377-4.943-3.377-7.943c0-3.001,1.199-5.822,3.377-7.944
	l6.102-5.945c1.529-1.49,3.563-2.311,5.726-2.311h18.412c1.856,0,3.366,1.471,3.366,3.28v2.798c0,1.809-1.51,3.28-3.366,3.28H70.971
	c-0.74,0-1.339-0.584-1.339-1.305c0-0.721,0.599-1.305,1.339-1.305h20.964c0.379,0,0.688-0.301,0.688-0.67V6.946
	c0-0.37-0.31-0.67-0.688-0.67H73.522c-1.448,0-2.808,0.549-3.832,1.546l-6.102,5.945c-1.672,1.629-2.593,3.795-2.593,6.099
	s0.921,4.47,2.593,6.099c0.522,0.51,0.522,1.335,0,1.845C63.328,28.064,62.985,28.191,62.643,28.191"/>
<path d="M91.935,59.271H73.522c-2.163,0-4.196-0.82-5.725-2.311l-6.102-5.945c-2.178-2.122-3.377-4.943-3.377-7.944
	s1.199-5.822,3.377-7.944l6.404-6.24c1.334-1.3,3.108-2.016,4.995-2.016h18.84c1.856,0,3.366,1.472,3.366,3.28v2.633
	c0,1.809-1.51,3.28-3.366,3.28h-18.84c-1.887,0-3.66-0.716-4.995-2.016l-0.755-0.736l-3.755,3.66
	c-1.672,1.629-2.593,3.795-2.593,6.099c0,2.304,0.92,4.47,2.593,6.099l6.102,5.945c1.023,0.997,2.384,1.546,3.832,1.546h18.412
	c0.379,0,0.688-0.301,0.688-0.67v-2.963c0-0.369-0.31-0.67-0.688-0.67H70.801c-0.739,0-1.338-0.584-1.338-1.305
	s0.6-1.305,1.338-1.305h21.133c1.856,0,3.366,1.471,3.366,3.279v2.963C95.301,57.801,93.791,59.271,91.935,59.271 M69.238,31.469
	l0.755,0.736c0.828,0.807,1.929,1.251,3.101,1.251h18.84c0.379,0,0.688-0.301,0.688-0.671v-2.633c0-0.37-0.31-0.671-0.688-0.671
	h-18.84c-1.171,0-2.272,0.444-3.101,1.251L69.238,31.469z"/>
<polygon points="24.37,72.652 33.21,72.652 33.21,73.683 24.37,73.683 24.37,79.479 33.901,79.479 33.901,80.571 23.227,80.571 
	23.227,65.865 33.642,65.865 33.642,66.938 24.37,66.938 "/>
<path d="M49.864,68.703c-1.1-1.724-2.868-1.976-4.572-1.996c-1.767,0-4.571,0.629-4.571,2.981c0,1.87,2.07,2.313,4.615,2.775
	c2.911,0.544,5.929,1.049,5.929,4.222c-0.021,3.319-3.45,4.118-5.974,4.118c-2.35,0-5.024-0.944-6.188-3.193l1.035-0.505
	c0.928,1.786,3.3,2.668,5.153,2.668c1.855,0,4.81-0.503,4.81-3.109c0.021-2.206-2.48-2.688-4.959-3.151
	c-2.76-0.525-5.585-1.071-5.585-3.781c-0.065-3.11,3.256-4.076,5.735-4.076c2.157,0,4.033,0.336,5.521,2.501L49.864,68.703z"/>
<polygon points="67.056,80.571 65.59,80.571 57.632,73.323 57.632,80.552 56.468,80.552 56.468,65.865 57.632,65.865 57.632,72.567 
	64.964,65.865 66.367,65.865 66.367,65.971 58.776,72.904 67.056,80.488 "/>
<polygon points="73.402,72.652 82.242,72.652 82.242,73.683 73.402,73.683 73.402,79.479 82.934,79.479 82.934,80.571 72.26,80.571 
	72.26,65.865 82.674,65.865 82.674,66.938 73.402,66.938 "/>
<polygon points="89.301,65.865 89.301,79.503 97.797,79.503 97.797,80.572 88.138,80.572 88.138,65.865 "/>
<path d="M116.562,80.571l-1.659-3.612h-9.013l-1.641,3.612H103l6.771-14.706h1.272l6.77,14.706H116.562z M114.45,75.908
	l-4.054-8.949l-4.056,8.949H114.45z"/>
<polygon points="133.8,80.571 133.8,73.893 124.18,73.893 124.18,80.571 123.016,80.571 123.016,65.865 124.18,65.865 
	124.18,72.862 133.8,72.862 133.8,65.865 134.963,65.865 134.963,80.571 "/>
<path d="M23.567,91.678v1.529h-0.34v-4.422h1.938c1.92,0,1.92,2.893,0,2.893H23.567z M23.567,89.101v2.267h1.598
	c1.471,0,1.471-2.267,0-2.267H23.567z"/>
<path d="M28.421,90.085l0.014,0.558c0.195-0.424,0.638-0.587,1.036-0.587c0.233-0.008,0.46,0.056,0.668,0.183L30,90.49
	c-0.164-0.1-0.347-0.146-0.53-0.146c-0.581,0.006-1.03,0.474-1.03,1.041v1.821h-0.31v-3.122H28.421z"/>
<path d="M31.108,91.658c0-0.99,0.708-1.623,1.586-1.623c0.877,0,1.584,0.633,1.584,1.623c0,0.993-0.708,1.598-1.584,1.598
	C31.815,93.256,31.108,92.651,31.108,91.658 M33.976,91.658c0-0.808-0.574-1.332-1.281-1.332c-0.708,0-1.283,0.524-1.283,1.332
	s0.575,1.295,1.283,1.295C33.401,92.953,33.976,92.466,33.976,91.658"/>
<path d="M38.841,88.785v4.422h-0.302v-0.689c-0.259,0.474-0.771,0.738-1.301,0.738c-0.871,0-1.559-0.575-1.559-1.61
	c0-1.03,0.694-1.61,1.565-1.61c0.537,0,1.042,0.228,1.294,0.732v-1.982H38.841z M35.982,91.646c0,0.865,0.575,1.308,1.275,1.308
	c0.733,0,1.276-0.537,1.276-1.314c0-0.775-0.555-1.307-1.276-1.307C36.557,90.332,35.982,90.768,35.982,91.646"/>
<path d="M43.128,93.207v-0.563c-0.24,0.43-0.676,0.605-1.112,0.612c-0.833,0-1.407-0.511-1.407-1.378V90.08h0.309v1.793
	c0,0.708,0.436,1.086,1.111,1.08c0.645-0.008,1.092-0.492,1.092-1.137V90.08h0.31v3.127H43.128z"/>
<path d="M47.774,92.789c-0.316,0.315-0.727,0.467-1.138,0.467c-0.877,0-1.603-0.624-1.603-1.61c0-0.985,0.701-1.61,1.603-1.61
	c0.411,0,0.822,0.158,1.138,0.468l-0.196,0.195c-0.253-0.252-0.606-0.372-0.942-0.372c-0.706,0-1.3,0.479-1.3,1.319
	c0,0.84,0.594,1.321,1.3,1.321c0.335,0,0.677-0.134,0.929-0.386L47.774,92.789z"/>
<path d="M49.981,89.145v0.94h1.06v0.26h-1.06v1.901c0,0.423,0.088,0.72,0.574,0.72c0.152,0,0.322-0.05,0.48-0.125l0.107,0.251
	c-0.195,0.094-0.391,0.157-0.587,0.157c-0.663,0-0.877-0.39-0.877-1.003v-1.901h-0.664v-0.26h0.664v-0.908L49.981,89.145z"/>
<path d="M52.889,89.07c0,0.328-0.499,0.328-0.499,0C52.39,88.74,52.889,88.74,52.889,89.07 M52.479,93.207h0.309v-3.135h-0.309
	V93.207z"/>
<path d="M54.388,91.658c0-0.99,0.707-1.623,1.584-1.623c0.878,0,1.585,0.633,1.585,1.623c0,0.993-0.707,1.598-1.585,1.598
	C55.094,93.256,54.388,92.651,54.388,91.658 M57.254,91.658c0-0.808-0.575-1.332-1.283-1.332c-0.707,0-1.281,0.524-1.281,1.332
	s0.574,1.295,1.281,1.295C56.679,92.953,57.254,92.466,57.254,91.658"/>
<path d="M59.462,90.085v0.558c0.24-0.431,0.676-0.607,1.111-0.614c0.834,0,1.409,0.512,1.409,1.378v1.801h-0.31v-1.794
	c0-0.707-0.436-1.087-1.112-1.081c-0.644,0.007-1.092,0.494-1.092,1.137v1.738h-0.309v-3.122H59.462z"/>
<path d="M68.871,89.853c0-0.695-0.543-0.815-1.13-0.815c-0.847,0-1.25,0.393-1.244,0.891c0.006,0.676,0.726,0.885,1.256,0.885h1.875
	v0.271h-0.404v0.967c0,0.475,0.106,0.896,0.55,0.891v0.267c-0.36,0.049-0.645-0.19-0.739-0.563c-0.323,0.524-0.827,0.617-1.3,0.617
	c-1.074,0-1.637-0.472-1.637-1.23c0-0.549,0.449-0.933,0.891-1.079c-0.46-0.139-0.815-0.523-0.815-1.016
	c0-0.683,0.563-1.175,1.573-1.175c0.707,0,1.421,0.183,1.421,1.092H68.871z M68.946,91.083h-1.211c-0.872,0-1.314,0.493-1.314,0.947
	c0,0.57,0.417,0.937,1.308,0.937c0.505,0,1.218-0.178,1.218-0.917V91.083z"/>
<path d="M77.656,90.945c0.023,1.123-0.695,2.262-2.242,2.262h-1.496v-4.422h1.496C76.91,88.785,77.629,89.859,77.656,90.945
	 M74.258,89.107v3.769h1.156c1.313,0,1.92-0.982,1.9-1.931c-0.019-0.922-0.625-1.838-1.9-1.838H74.258z"/>
<path d="M79.669,89.07c0,0.328-0.499,0.328-0.499,0C79.17,88.74,79.669,88.74,79.669,89.07 M79.258,93.207h0.31v-3.135h-0.31V93.207
	z"/>
<path d="M84.065,89.928l0.202,0.179l-0.322,0.377c0.222,0.239,0.436,0.512,0.436,1.074c0,0.543-0.315,1.188-0.998,1.351
	c0.563,0.128,0.974,0.463,0.974,1.03c0,0.745-0.746,1.144-1.573,1.144c-0.833,0-1.54-0.455-1.54-1.246h0.31
	c0,0.639,0.605,0.949,1.23,0.949c0.626,0,1.271-0.241,1.271-0.847c0-0.613-0.689-0.859-1.271-0.859c-0.94,0-1.609-0.549-1.609-1.521
	c0-1.01,0.858-1.522,1.609-1.522c0.316,0,0.721,0.101,0.96,0.272L84.065,89.928z M81.483,91.558c0,0.84,0.568,1.231,1.3,1.231
	c0.79,0,1.295-0.588,1.295-1.231c0-0.865-0.65-1.231-1.295-1.231C82.185,90.326,81.483,90.706,81.483,91.558"/>
<path d="M86.399,89.07c0,0.328-0.498,0.328-0.498,0C85.901,88.74,86.399,88.74,86.399,89.07 M85.989,93.207h0.31v-3.135h-0.31
	V93.207z"/>
<path d="M88.77,89.145v0.94h1.061v0.26H88.77v1.901c0,0.423,0.089,0.72,0.575,0.72c0.15,0,0.321-0.05,0.479-0.125l0.106,0.251
	c-0.194,0.094-0.391,0.157-0.586,0.157c-0.663,0-0.879-0.39-0.879-1.003v-1.901h-0.661v-0.26h0.661v-0.908L88.77,89.145z"/>
<path d="M94.19,90.085v3.122h-0.31v-0.664c-0.303,0.485-0.771,0.713-1.276,0.713c-0.87,0-1.584-0.655-1.584-1.61
	c0-0.953,0.714-1.598,1.584-1.598c0.506,0,1.018,0.235,1.276,0.72v-0.683H94.19z M91.331,91.646c0,0.783,0.567,1.308,1.273,1.308
	c1.738,0,1.738-2.608,0-2.608C91.898,90.345,91.331,90.863,91.331,91.646"/>
<rect x="96.044" y="88.785" width="0.311" height="4.422"/>
<polygon points="104.63,89.277 102.939,91.868 102.826,91.868 101.12,89.277 101.12,93.207 100.778,93.207 100.778,88.785 
	101.185,88.785 102.876,91.361 104.549,88.785 104.966,88.785 104.966,93.207 104.63,93.207 "/>
<path d="M109.789,90.085v3.122h-0.308v-0.664c-0.305,0.485-0.771,0.713-1.278,0.713c-0.87,0-1.583-0.655-1.583-1.61
	c0-0.953,0.713-1.598,1.583-1.598c0.508,0,1.019,0.235,1.278,0.72v-0.683H109.789z M106.931,91.646c0,0.783,0.567,1.308,1.272,1.308
	c1.739,0,1.739-2.608,0-2.608C107.498,90.345,106.931,90.863,106.931,91.646"/>
<path d="M111.891,90.085l0.014,0.558c0.193-0.424,0.637-0.587,1.033-0.587c0.236-0.008,0.462,0.056,0.671,0.183l-0.139,0.252
	c-0.166-0.1-0.349-0.146-0.532-0.146c-0.578,0.006-1.028,0.474-1.028,1.041v1.821h-0.309v-3.122H111.891z"/>
<polygon points="115.233,88.785 115.233,91.45 116.705,90.085 117.116,90.085 117.116,90.099 115.538,91.558 117.299,93.186 
	117.299,93.207 116.908,93.207 115.233,91.678 115.233,93.207 114.931,93.207 114.931,88.785 "/>
<path d="M118.224,91.646c0-0.935,0.707-1.61,1.586-1.61c0.878,0,1.661,0.537,1.541,1.757h-2.812
	c0.063,0.732,0.626,1.161,1.271,1.161c0.411,0,0.891-0.164,1.124-0.475l0.222,0.178c-0.306,0.398-0.847,0.6-1.346,0.6
	C118.931,93.256,118.224,92.638,118.224,91.646 M121.072,91.519c-0.007-0.771-0.512-1.198-1.263-1.198
	c-0.645,0-1.199,0.437-1.271,1.198H121.072z"/>
<path d="M123.527,89.145v0.94h1.061v0.26h-1.061v1.901c0,0.423,0.088,0.72,0.575,0.72c0.149,0,0.32-0.05,0.479-0.125l0.106,0.251
	c-0.194,0.094-0.392,0.157-0.585,0.157c-0.665,0-0.879-0.39-0.879-1.003v-1.901h-0.663v-0.26h0.663v-0.908L123.527,89.145z"/>
<path d="M126.435,89.07c0,0.328-0.5,0.328-0.5,0C125.935,88.74,126.435,88.74,126.435,89.07 M126.022,93.207h0.309v-3.135h-0.309
	V93.207z"/>
<path d="M128.444,90.085v0.558c0.239-0.431,0.674-0.607,1.111-0.614c0.833,0,1.407,0.512,1.407,1.378v1.801h-0.31v-1.794
	c0-0.707-0.435-1.087-1.112-1.081c-0.642,0.007-1.091,0.494-1.091,1.137v1.738h-0.31v-3.122H128.444z"/>
<path d="M135.426,89.928l0.203,0.179l-0.323,0.377c0.221,0.239,0.436,0.512,0.436,1.074c0,0.543-0.315,1.188-0.998,1.351
	c0.563,0.128,0.974,0.463,0.974,1.03c0,0.745-0.746,1.144-1.572,1.144c-0.834,0-1.541-0.455-1.541-1.246h0.309
	c0,0.639,0.605,0.949,1.232,0.949c0.625,0,1.269-0.241,1.269-0.847c0-0.613-0.689-0.859-1.269-0.859
	c-0.941,0-1.611-0.549-1.611-1.521c0-1.01,0.858-1.522,1.611-1.522c0.314,0,0.72,0.101,0.96,0.272L135.426,89.928z M132.844,91.558
	c0,0.84,0.567,1.231,1.301,1.231c0.786,0,1.295-0.588,1.295-1.231c0-0.865-0.653-1.231-1.295-1.231
	C133.546,90.326,132.844,90.706,132.844,91.558"/>
</svg>
