<?xml version="1.0" encoding="utf-8"?>
<!-- Generator: Adobe Illustrator 16.0.0, SVG Export Plug-In . SVG Version: 6.00 Build 0)  -->
<!DOCTYPE svg PUBLIC "-//W3C//DTD SVG 1.1//EN" "http://www.w3.org/Graphics/SVG/1.1/DTD/svg11.dtd">
<svg version="1.1" id="Layer_1" xmlns="http://www.w3.org/2000/svg" xmlns:xlink="http://www.w3.org/1999/xlink" x="0px" y="0px"
	 width="41px" height="56px" viewBox="0 0 41 56" enable-background="new 0 0 41 56" xml:space="preserve">
<path d="M9.289,24.806c-0.261,0-0.522-0.097-0.72-0.291C6.911,22.9,6,20.754,6,18.473c0-2.283,0.911-4.429,2.569-6.044l4.641-4.522
	c1.162-1.132,2.709-1.757,4.354-1.757h14.004c1.41,0,2.563,1.119,2.563,2.494v2.128c0,1.376-1.152,2.495-2.563,2.495H15.623
	c-0.563,0-1.018-0.445-1.018-0.993s0.454-0.992,1.018-0.992h15.946c0.289,0,0.525-0.229,0.525-0.51V8.645
	c0-0.281-0.236-0.51-0.525-0.51H17.564c-1.101,0-2.134,0.417-2.914,1.177l-4.642,4.521c-1.271,1.239-1.973,2.888-1.973,4.641
	c0,1.751,0.702,3.399,1.973,4.638c0.397,0.388,0.397,1.016,0,1.404C9.811,24.708,9.55,24.806,9.289,24.806"/>
<path d="M31.568,48.444H17.564c-1.645,0-3.192-0.624-4.354-1.757l-4.641-4.522C6.911,40.551,6,38.406,6,36.124
	c0-2.283,0.911-4.429,2.569-6.044l4.87-4.745c1.016-0.988,2.363-1.534,3.798-1.534h14.331c1.41,0,2.563,1.119,2.563,2.495V28.3
	c0,1.376-1.152,2.494-2.563,2.494H17.238c-1.436,0-2.783-0.546-3.798-1.534l-0.573-0.559l-2.858,2.783
	c-1.271,1.241-1.973,2.888-1.973,4.641c0,1.751,0.702,3.399,1.973,4.639l4.642,4.521c0.78,0.759,1.813,1.177,2.914,1.177h14.004
	c0.289,0,0.525-0.229,0.525-0.511v-2.252c0-0.281-0.236-0.511-0.525-0.511H15.495c-0.561,0-1.018-0.444-1.018-0.992
	c0-0.55,0.457-0.992,1.018-0.992h16.074c1.41,0,2.563,1.119,2.563,2.495v2.252C34.131,47.326,32.979,48.444,31.568,48.444
	 M14.307,27.297l0.572,0.56c0.631,0.615,1.469,0.953,2.358,0.953h14.331c0.289,0,0.525-0.229,0.525-0.51v-2.004
	c0-0.281-0.236-0.51-0.525-0.51H17.238c-0.89,0-1.728,0.338-2.358,0.953L14.307,27.297z"/>
</svg>
