<svg xmlns="http://www.w3.org/2000/svg" width="109.751" height="100.015" viewBox="0 0 109.751 100.015">
  <g id="Group_140" data-name="Group 140" transform="translate(732.736 2081.592)">
    <g id="Group_138" data-name="Group 138" transform="translate(32 -1)">
      <circle id="Ellipse_109" data-name="Ellipse 109" cx="50.008" cy="50.008" r="50.008" transform="translate(-755 -2080.592)" fill="#fdbd2e"/>
    </g>
    <g id="ico-03" transform="translate(-961.694 -2053.027)">
      <path id="Path_884" data-name="Path 884" d="M25.535,50.633C21.446,47.027,17.5,43.344,13.8,39.4A68.641,68.641,0,0,1,5.116,28.445,21.441,21.441,0,0,1,1.87,20.321c-.532-3.7.086-7.108,2.627-9.99a11.878,11.878,0,0,1,6.423-3.588,12.3,12.3,0,0,1,8.047.679,11.27,11.27,0,0,1,4.248,3.661c.863,1.126,1.6,2.346,2.416,3.563.083-.128.177-.284.281-.437.829-1.2,1.606-2.441,2.5-3.594a10.9,10.9,0,0,1,8.8-4.2,13.123,13.123,0,0,1,8.222,2.539,10.257,10.257,0,0,1,4.2,8c.232,3.358-.985,6.353-2.38,9.3a41.615,41.615,0,0,1-6.448,9.207,156.192,156.192,0,0,1-14.942,14.9C25.768,50.452,25.67,50.526,25.535,50.633Z" transform="translate(228 11.83)" fill="#fff" stroke="#231f20" stroke-linecap="round" stroke-linejoin="round" stroke-miterlimit="10" stroke-width="1.477"/>
    </g>
    <g id="ico-03-2" data-name="ico-03" transform="translate(-952.694 -2069.644)">
      <path id="Path_884-2" data-name="Path 884" d="M30.176,59.25c-4.885-4.308-9.6-8.708-14.021-13.418A82,82,0,0,1,5.782,32.743,25.614,25.614,0,0,1,1.9,23.038c-.636-4.418.1-8.492,3.139-11.934a14.19,14.19,0,0,1,7.674-4.286,14.7,14.7,0,0,1,9.614.811A13.464,13.464,0,0,1,27.406,12c1.03,1.345,1.907,2.8,2.887,4.257.1-.153.212-.34.336-.523.99-1.436,1.918-2.916,2.985-4.294A13.022,13.022,0,0,1,44.127,6.423,15.677,15.677,0,0,1,53.95,9.456a12.254,12.254,0,0,1,5.017,9.559c.278,4.012-1.177,7.59-2.843,11.116a49.716,49.716,0,0,1-7.7,11,186.6,186.6,0,0,1-17.85,17.806C30.454,59.034,30.337,59.122,30.176,59.25Z" transform="translate(228 11.83)" fill="none" stroke="#231f20" stroke-linecap="round" stroke-linejoin="round" stroke-miterlimit="10" stroke-width="1.477"/>
    </g>
  </g>
</svg>
