<svg xmlns="http://www.w3.org/2000/svg" viewBox="0 0 1183.77 1282.54"><defs><style>.cls-1{fill:#ffbe2e;}.cls-2{fill:#fff;}</style></defs><g id="Layer_2" data-name="Layer 2"><g id="Layer_1-2" data-name="Layer 1"><path d="M463.43,1084.25l72.11-60.82c-2.8-3.11-4.85-5.61-7.13-7.88-26.39-26.41-52.49-53.13-79.35-79-20.23-19.53-43.77-34.83-68-49a343.76,343.76,0,0,0-133.61-44.95,400.37,400.37,0,0,0-74.82-1.52C119.54,844.68,67.94,856.89,16,867c-5.09,1-10.17,1.95-16,1.34a26.88,26.88,0,0,1,3.08-3.46C57.47,821.1,118.59,792.06,188,782.47c65.48-9,128.12,1.84,187.77,30.21a422.56,422.56,0,0,1,66.88,39.91c4.72,3.44,9.46,5.66,15.42,6.08,13.41,1,26.2,4.65,38.53,10,2.39,1,4.91,1.77,7.54,2.7-.32-7.43-2.54-11-14.53-22.46-6.64-6.37-13.5-12.51-19.7-19.78,11.26.09,21.17,4.23,30.79,8.88,9.85,4.76,19.37,10.21,31,16.4l-27.2-49c5.67-1,8.64,2,11.07,4.61,8.22,8.69,16.06,17.75,23.93,26.77,2.35,2.7,4.32,5.73,8.37,8.24-.62-8.7-1.54-17.4-1.79-26.11-.29-9.89-10-14.62-12.81-24.71l19-1.46c2.27-8,1.95-15.22-5.1-21.41-4.41-3.87-8.1-8.57-13.89-14.82L552.13,755c1.59-9.26,1.36-17.28-5.85-24.17-5.19-5-9.58-10.77-15.89-18l18.12-2c2.3-8.6,3.3-16.63-4.27-23.67-4.07-3.8-7.43-8.36-12.49-14.16,4.46-.73,7.12-1.32,9.81-1.58,10.06-1,13.47-7.51,8.12-16.46-2.54-4.26-6-7.95-9-11.94-2.15-2.86-4.18-5.8-7.21-10,4-.51,6.38-.94,8.81-1.08,2.6-.16,5.21,0,8,0,3.07-8.67,2.36-15.41-4.81-21-4.38-3.43-8.16-7.62-14.11-13.26l19.64-2.77c2.92-9,2.6-16.92-5.13-23.57-3.42-2.94-6.2-6.61-10.84-11.65l15.9-1.34c2.84-6.38,1.57-11.51-3.43-16.13-4.79-4.42-9.33-9.11-14-13.69.23-.73.46-1.45.68-2.18,3.78-.25,7.55-.71,11.33-.71,5.08,0,7-2.45,7.26-7.35.26-6.24-.43-11.81-5.56-16.3-3.69-3.24-6.78-7.15-10.3-10.94,4.42-5.69,10.95-1.27,15.63-5.16,1.79-10.28,2.7-20.49-8-28-3.69-2.6-6.61-6.31-11.51-11.12l19.66-3.52c2.49-9.77,1.22-17.58-6.54-23.88-3.23-2.62-5.76-6.11-10.13-10.85l16.5-1.53c2.27-6.37,1.2-11.27-3.62-15.63s-9.37-9.26-15.63-15.51l19.21-2.89c2.76-8.78,2.37-16.61-5.29-23.26-3.35-2.91-5.9-6.73-9.84-11.33l15-2.1c3.88-13,2.48-17.55-7.22-22.91-5.94,3.59-8.22,10-10.79,15.94-5.33,12.43-6.71,25.72-7.66,39.05-.83,11.63-1.38,23.28-2.39,34.9-1.1,12.65-2.73,13.94-15.48,13.89h-5.59c2.43,4,4.42,6.88,6,10,3.44,6.8,7.58,13.44,9.74,20.66,2.8,9.32-2.49,14.22-11.84,12-3.8-.89-7.47-2.36-12-3.81-.79,12-1.37,23.2-2.37,34.4-.35,3.88-1,8.11-2.81,11.43-4.63,8.37-14.48,8.76-19.27.53-2.58-4.41-3.84-10-4.36-15.14a326.87,326.87,0,0,1,4.36-96.5c.37-1.88.57-3.8,1-6.58l-14.8,5.89c-.62,15.23-1.41,30.49-1.84,45.77s-.62,30.66-.67,46a25.6,25.6,0,0,1-6.29,17.44c-4.53,5.18-10,5.4-14.57.2a28.17,28.17,0,0,1-6.07-10.18c-8.28-28.81-18.05-57.35-23.81-86.67C394.9,358,409.42,321,446,293.37q22.37-16.85,44.77-33.64a8.82,8.82,0,0,0,3.72-5.37c-3.29,1.58-6.93,2.69-9.82,4.82-19.57,14.44-39.09,28.95-58.41,43.73-10.31,7.89-20.59,15.9-30.19,24.63-30.06,27.33-43.88,62.11-45.29,102.19-.35,9.64.23,19.32.41,29a41.64,41.64,0,0,1,.2,5c-.58,5.56-5.38,11.44-10.07,12.57s-9.68-1.37-13.31-6.85a10.57,10.57,0,0,1-1.47-2.61c-6.66-22-14.65-43.72-14.64-67.1,0-23.16,5.5-44.54,19.27-63.9a363.88,363.88,0,0,1,71.24-75.25c2.34-1.85,4.56-3.85,6.8-5.82.18-.16.11-.6.28-1.79-22.08,1.54-42.89,5.91-59.16,21.95-6.58,6.49-11.85,14.32-17.53,21.69a53.4,53.4,0,0,0-4.48,7.79c-4.73,9-10,17-22.68,13.21-1.75,6.4-3.34,12.14-4.89,17.88-.79,2.89-1.41,5.83-2.3,8.69-2.77,8.85-9.84,13.83-16.91,12-6.9-1.77-11.31-10-9.38-18.66,1.44-6.48,3.74-12.78,5.67-19.16,6.76-22.39,15-44.17,27.05-64.34,11-18.5,24.35-35,42.29-47.36,27.8-19.11,58.45-22.7,90.86-16.47a22.79,22.79,0,0,0,7.59.36,50.92,50.92,0,0,0-27.71-12c-19.82-2.34-38.48,1.34-55.36,12.47-.56.37-1.09.78-1.67,1.1-4.1,2.28-8.23,4.92-13.09,2.39-5.12-2.66-4.72-7.52-4.38-12.26.09-1.26,0-2.53,0-4.83a77.34,77.34,0,0,0-7.81,3.08,195.74,195.74,0,0,0-50.17,37.65c-3,3.1-6.21,6.22-9.92,8.22-10,5.38-19.45-.75-18.48-12a20.64,20.64,0,0,1,4.23-10.89c8.12-9.69,16.37-19.37,25.48-28.11,26-24.92,57.67-36.34,93.27-37.81,9-.37,9-.33,14.87-4.21-1.32-4.41-4.94-6.15-8.9-6.75-11.5-1.72-23-3.6-34.59-4.48-13.7-1-25.47,4.25-35.44,13.46-6.6,6.11-12.88,12.57-19.34,18.83a38,38,0,0,1-6,5.27c-4.3,2.67-8.9,2.81-13.18-.15a10.51,10.51,0,0,1-4.59-11.38,40.08,40.08,0,0,1,4.89-11.88c13.73-22,33.5-36.89,57.33-46.33,61.94-24.52,137.78-8.44,179.72,53.8,2.06,3,4.66,5.75,7,8.62l2-1.35c-.77-1.92-1.16-4.13-2.36-5.72-6.81-9.06-13.56-18.17-20.82-26.86A186,186,0,0,0,482.9,99.52C469.1,87.05,453,79.75,434,79.74c-3.64,0-7.6.16-10.84-1.16C419,76.9,413.89,74.64,412,71.12c-3.17-6.05-7.68-6.59-13.17-6.75-28.82-.82-55.2,7.69-80.28,21.06a148.85,148.85,0,0,0-14.54,8.78c-8.2,5.65-17,5.35-25.87,2.84-11.05-3.11-13.66-14.75-4.54-22.11,18.12-14.64,37.76-26.23,59.77-33.68C372.65,28,412.35,26,452.42,37.31,478.65,44.7,501.64,57.52,520,78a34.93,34.93,0,0,0,3.66,3.31c.17.14.62-.06,1-.11,1.14-16.2-5.6-27.31-19.88-32.78-13.79-5.28-15.61-13.5-4.67-24.14,13.53-13.14,30.14-20.57,48.57-24,5.56-1,9.82.9,12.63,5.83Q568.92,19.55,576.51,33c1.26,2.23,2.37,4.54,4.12,7.92,1.68-3.45,2.64-5.81,3.94-8q7.92-13.27,16-26.42c3.19-5.14,8-6.65,13.83-5.63C633,4.19,649.26,12,663,25a23.06,23.06,0,0,1,3.69,4.7c5.3,8.68,3,15-6.54,18.48-16.24,5.82-23.1,16-22.38,34.16a30.62,30.62,0,0,0,4-3.12C667.59,50.38,701,36.5,738.42,32c45.75-5.48,89,3.22,128.57,27.28,7.94,4.82,15,11.1,22.68,16.35,8.42,5.75,6.12,17.93-3.94,21.07-9.64,3-18.8,2.91-27.68-3-18.76-12.51-39.12-21.76-61.27-26-11.35-2.19-23.12-2.37-34.71-3.12-4-.25-7.71.44-10,4.92-4.4,8.58-12.71,10.24-21.32,10.2C717,79.61,703.91,82.3,692.8,90.2a165.62,165.62,0,0,0-26.15,23c-9.42,10.29-17.45,21.86-26,33-.86,1.13-1.08,2.76-1.79,4.7,5.25.76,6.31-2.95,8-5.45A155.89,155.89,0,0,1,676.77,112c53.76-44.51,137.67-44.07,188.94,1.53,7.61,6.77,13.47,15.54,19.86,23.6a25.38,25.38,0,0,1,3.85,8.07c1.84,5.8,0,11.46-4.16,14.29a12.25,12.25,0,0,1-14.89-1.19A169.49,169.49,0,0,1,854,142.18c-14.41-16.45-32.42-22.75-53.8-19.82A223.42,223.42,0,0,0,775.64,127c-3.09.78-5.67,3.61-8.92,5.8,4.29,4.63,8.65,4.31,12.92,4.68,9.61.84,19.31,1.33,28.78,3,26.69,4.78,49.64,17.22,68.89,36.16a289.46,289.46,0,0,1,23.22,26.13,23.27,23.27,0,0,1,4.72,12.68c.44,10.29-8.49,15.86-17.71,11.2-4-2-7.58-5.39-10.78-8.69a200.07,200.07,0,0,0-48.51-36.58c-2-1.11-4.16-2.1-6.29-3-.54-.24-1.28,0-3,0a81.14,81.14,0,0,1,0,8.55c-.73,7.08-5.14,10.13-11.79,7.82-3.39-1.18-6.36-3.55-9.58-5.25C772.18,176,746.46,173,720.3,187.3a6.42,6.42,0,0,0-3.2,4l13.43-2.18c45.51-7.38,82.72,7.08,111.72,42.73,18.81,23.12,30.47,49.95,39.63,78,2.48,7.6,4.79,15.26,7.11,22.92a33.49,33.49,0,0,1,1.57,6.78c.69,7.92-3.75,14.77-10.3,16.26-6.29,1.44-13.52-3.12-15.9-10.76-2.75-8.87-4.88-17.93-7.18-26.49-5.12-.88-10.42-.37-13.7-2.7-4.09-2.91-6.68-8-9.63-12.41-3.91-5.79-7.23-12-11.35-17.63-17.14-23.39-41.4-31.93-70.08-31.77,3,2.44,5.93,4.9,8.93,7.31a358.27,358.27,0,0,1,71.39,76.46c15.64,22.64,20.67,47.79,17,74.21-2.46,17.68-8.26,35-13.19,52.22-2.37,8.29-9.47,13-15.25,11.8-6.21-1.32-10.9-9.09-10.23-17.38,1.64-20.38.93-40.64-3.5-60.65-5.31-24-15.87-45.54-33.48-62.64-13.58-13.18-28.61-24.92-43.49-36.67-17.25-13.62-35-26.59-52.64-39.74a15.54,15.54,0,0,0-9.39-3.29,41.9,41.9,0,0,0,4.28,4.35c13.79,10.5,27.5,21.11,41.5,31.32,24.85,18.12,41.07,41.61,45.5,72.41,2.59,18.05.88,35.94-4.11,53.45-6.49,22.75-13,45.48-20,68.09a42.13,42.13,0,0,1-7.44,13.89c-4.38,5.4-9.94,5-14.5-.21-4.1-4.67-5.91-10.12-6.05-16.47-.57-25.32-1.41-50.64-2.27-75.95-.19-5.59-.83-11.17-1.22-16.09L690,383.57c1.89,15.46,4.06,31.11,5.67,46.83,2.11,20.65.72,41.29-1.54,61.85a23.76,23.76,0,0,1-3.8,10.16c-5.32,8-14.86,7.69-19.3-.86-2-3.95-2.61-8.87-3-13.43-.92-10.5-1.34-21.05-2-32.22-5,1.56-8.71,3-12.55,3.85-8.54,1.86-13.19-2.19-11.48-10.79,1.07-5.42,3.77-10.61,6.27-15.63,2.6-5.22,5.85-10.1,8.87-15.21-1.56-.66-2.17-1.15-2.75-1.13-18.23.68-16.31-2.87-18.1-16.68-2.1-16.17-2.53-32.56-4.52-48.75-1-8.51-3.48-16.93-6.08-25.15-1.33-4.21-4.41-7.87-6.66-11.72-8.58,4.82-9.08,6.38-7.08,20.53l16.44,3.27c-3.74,4.16-6.23,7.68-9.44,10.32-7.89,6.49-8.21,14.46-6,23.81l19.53,3.21c-5.87,5.69-10.13,10.22-14.82,14.25-5.19,4.46-6.81,9.54-4.25,16.56l15.09,1.9c-4.3,5-7.82,8.8-10.9,12.89-2.13,2.83-4.63,5.92-5.27,9.23-2,10.52,0,12.81,10.56,14.13,2.53.32,5,.89,9.35,1.67-3.46,3.63-5.51,6.71-8.36,8.61-11.37,7.58-13.42,18.14-10.42,31.3l15.76,2.89c-3.58,4.24-5.81,7.85-8.92,10.38-8.14,6.61-9.11,14.82-6.55,25l18.33,2c-3.21,7.06-8.7,10.46-13.2,14.49-4.95,4.44-7.44,9.23-5.31,16.86l16.35,2.1c-4,4.45-6.42,8-9.66,10.62-7.88,6.3-8.81,14.23-6.67,23.91l20,3c-5.5,5.48-9.19,9.71-13.44,13.25-6.55,5.47-7.91,11.85-4.59,20.47l15.47.89c-1.13,2.62-1.64,4.76-2.83,6.41-3.13,4.31-6.72,8.29-9.79,12.65-1.67,2.37-3.54,5.14-3.78,7.87-.84,9.46-.08,12,9.36,12.25,2.29.06,4.58.51,8,.92-1.18,2.51-1.75,4.62-3,6.21a84.79,84.79,0,0,1-8,8.92c-7,6.64-7.13,14.37-4.36,23.33l16.92,1.61c-1.35,2.62-2,4.74-3.35,6.33a113.89,113.89,0,0,1-10.76,11.82c-7.41,6.68-7.93,14.72-5.87,24.21l16.25,1.69c-1.49,6.61-6.41,10-10.41,13.47-7.36,6.39-8.24,13.77-5.84,22.84,11.34,2.41,22.29.3,34.18-1.1-4,5-8.42,9.75-12,15.05a98.73,98.73,0,0,0-9.2,16.54,85.07,85.07,0,0,0-5.23,19.52c13.48-15.73,25.07-33.8,50-32.5-4.14,3.93-8.65,7.54-12.33,11.86a75.73,75.73,0,0,0-9.49,14,49.41,49.41,0,0,0-5.18,17.48c4.1-5.18,8-10.57,12.36-15.5A33,33,0,0,1,676,826.88L668.68,847c.43.37.87.73,1.31,1.09,5.23-5.08,10.19-10.49,15.78-15.15a173.3,173.3,0,0,1,19.34-14.12c6.38-4,13.34-7,20-10.39l1.81,1.94c-2,2.74-3.83,5.59-6,8.22-8.37,10.37-17,20.51-25.19,31.06-9.06,11.75-15.75,24.74-18.12,39.59-.61,3.88-.71,7.84-1.26,14.35,5.52-4.24,9.43-7,13-10,22.78-19.52,45.7-38.85,71-55.08,41.16-26.34,85.24-45.62,133.53-54,70.49-12.21,138-1.63,202.61,28.58a390.27,390.27,0,0,1,80.5,50,58.93,58.93,0,0,0,6.6,4.06l-2,2.77c-8.37-1.6-16.74-3.25-25.13-4.81-36-6.66-71.92-14.2-108.12-19.75-69-10.58-137-6.83-202.27,20.4-46.92,19.56-89.15,46.4-125,82.77-21.55,21.82-43.39,43.36-65.05,65.06-2.78,2.78-5.33,5.79-8.95,9.75,23.44,20.74,47.19,39.82,70.73,60.16,2.51-2.19,4.57-3.72,6.33-5.55,5.54-5.76,10.87-11.74,16.48-17.44,6.47-6.57,14.35-8.24,23-5.33,10.14,3.41,14.78,13.12,11.19,23.22a39.9,39.9,0,0,1-15,19.5c-3.81,2.69-7.88,5-11.56,7.87-7.1,5.5-8.22,11.54-3.44,19.2a63.73,63.73,0,0,0,7.44,9.38c20.11,21.8,40.42,43.43,60.38,65.38,4.62,5.09,8.73,6.48,15.62,4.23,14.89-4.88,31.58,1.42,40.67,14.06,8.57,11.93,7.91,27.36-1.76,41-20,28.24-64.62,31.77-90,6.6-15.37-15.26-29.93-31.33-44.79-47.09-12.12-12.85-24.08-25.85-36.25-38.65-7.15-7.53-17.59-8.4-26.28-2.12-4.86,3.5-9.22,7.67-13.92,11.4-5.94,4.72-12.56,7.68-20.35,6.3-14.14-2.51-19.51-15.57-10.8-27,3.18-4.15,7.54-7.48,11.66-10.82,5.43-4.39,11.17-8.41,16.74-12.65.47-.36.61-1.15,2.75-3.61l-62.22-61.81c-8.82,4.5-58.74,53.73-65.64,64.09,2.83,2.36,5.75,4.85,8.73,7.26,6.22,5,13,9.49,18.6,15.07,7.25,7.15,8.22,15.12,3.93,21.68s-13.61,9.87-22.2,6.95a49.45,49.45,0,0,1-12.1-6.68c-4.35-3.06-8.09-7-12.4-10.09-9.06-6.56-19.49-5.5-27,2.51-24.44,26-49,51.86-73.23,78-10.2,11-21.37,19.94-36.53,23-23,4.69-48.7-4.85-61.17-23-9.2-13.41-9.76-28.54-1.49-40.21,9-12.69,25.81-19.2,40.58-14.33,7.34,2.42,11.57.63,16.4-4.69,19.94-22,40.23-43.6,60.42-65.33,13.05-14,14-23.25-3.75-33.06A43,43,0,0,1,410.14,1084c-5.8-10.26-5-19.11,2.31-25.4,7.83-6.73,20.18-6.54,28.33,1,5.63,5.18,10.69,11,15.91,16.6C458.72,1078.35,460.51,1080.74,463.43,1084.25ZM22.56,857.3c.2.45.4.89.61,1.34a27.24,27.24,0,0,0,3.74-.39c43.71-10.78,87.8-19.32,132.79-22.79,30.62-2.36,61.33-3.42,91.71,1.22C331.63,848.94,401,884,459.09,940.32c53.58,52,105.75,105.43,158.55,158.24,11.78,11.78,23.51,23.63,35.39,35.32,6.72,6.61,8.56,6.23,14.9-3.29-23.26-27.29-46.9-54.77-70.27-82.48s-47.51-55-69.69-83.91a109.47,109.47,0,0,1,16.67,10.94q76.61,57.86,153.22,115.69c8.42,6.35,9.16,6.06,15.59-4.14-3-3-6-6.5-9.5-9.43C680.06,1057,656,1037,632.14,1016.78c-23.4-19.78-46.66-39.71-70.08-59.46s-46.91-39.41-70.46-59C478,887.05,464.71,875.4,450.5,865A459.8,459.8,0,0,0,370.4,818c-36.93-17-75.47-28.85-116.08-31.68-41.16-2.86-81.82,1.18-121.36,14.2-29.31,9.66-56.62,23.41-83.07,39C40.55,845.11,31.66,851.38,22.56,857.3ZM653.73,963.41l1.44,1.85c-9.58,13-21.44,24.17-31.35,38.28l19.6,15.82c3.39-3.15,6.11-5.51,8.66-8.05q37.83-37.78,75.63-75.59c2.59-2.59,5.14-5.25,7.94-7.6,36.54-30.6,76.57-55.32,121.25-72.34,30.08-11.46,61.16-19.4,93.17-21.15,25.5-1.39,51.22.18,76.8,1.43,32,1.56,63.4,7.58,94.66,14.29,12.6,2.71,25.12,5.72,37.68,8.59a19.32,19.32,0,0,0-7.15-7.07c-18.73-10.83-37.14-22.29-56.37-32.13-56.07-28.67-115.64-38.9-178.22-32.06-36.13,4-70.35,14.6-103.32,29.42-45.95,20.66-86.8,49-124.55,82.24-23.23,20.43-47.35,39.85-71,59.8-7.28,6.14-14.37,12.52-22.62,19.74l16.47,15.29Zm-62.43,13,80.58-68.16-.84-1.7H511.47l-.87,1.68Zm-123,110.25c7.94,10.25,8,10.39,16.11,4.37,20.52-15.34,40.93-30.82,61.4-46.22,1.83-1.38,3.75-2.66,5.33-3.77-8.64-13.83-12-14.62-22.88-5.58-14.58,12.09-28.94,24.45-43.36,36.74C479.46,1076.82,474.09,1081.61,468.34,1086.62Zm45.8,44.58c7.94,8.9,8.84,9.11,15.22,2.78,16.3-16.13,32.48-32.39,48.68-48.61,9.47-9.48,9.41-11.55-.64-20.47a39.85,39.85,0,0,0-4.46-2.79ZM473.93,373.56c3.84-11.56,6.87-21.91,10.72-31.94,4-10.53,8.55-20.88,13.38-31.06,4.6-9.69,9.88-19.05,14.82-28.5-5.5-3.38-6.86.53-9.05,2.72C479.66,309,467.83,337.4,473.93,373.56Zm213.21-2.18c6.81-35.79-7.16-64.38-31.9-89-1.22-1.21-3.65-1.2-7.52-2.36,8.25,16.6,16.1,30.82,22.48,45.66S681.58,356.19,687.14,371.38ZM468.29,872.48l27.31,23C489.73,884,480.19,876.81,468.29,872.48Z"/><path class="cls-1" d="M22.56,857.3c9.1-5.92,18-12.19,27.33-17.71,26.45-15.62,53.76-29.37,83.07-39,39.54-13,80.2-17.06,121.36-14.2C294.93,789.19,333.47,801,370.4,818A459.8,459.8,0,0,1,450.5,865c14.21,10.42,27.53,22.07,41.1,33.35q35.32,29.37,70.46,59c23.42,19.75,46.68,39.68,70.08,59.46C656,1037,680.06,1057,704,1077.26c3.46,2.93,6.46,6.4,9.5,9.43-6.43,10.2-7.17,10.49-15.59,4.14q-76.67-57.78-153.22-115.69A109.47,109.47,0,0,0,528,964.2c22.18,28.95,46.28,56.14,69.69,83.91s47,55.19,70.27,82.48c-6.34,9.52-8.18,9.9-14.9,3.29-11.88-11.69-23.61-23.54-35.39-35.32-52.8-52.81-105-106.25-158.55-158.24C401,884,331.63,848.94,251.41,836.68,221,832,190.32,833.1,159.7,835.46c-45,3.47-89.08,12-132.79,22.79a27.24,27.24,0,0,1-3.74.39C23,858.19,22.76,857.75,22.56,857.3Z"/><path class="cls-1" d="M653.73,963.41l-41.29,30.76L596,978.88c8.25-7.22,15.34-13.6,22.62-19.74,23.66-19.95,47.78-39.37,71-59.8,37.75-33.21,78.6-61.58,124.55-82.24,33-14.82,67.19-25.47,103.32-29.42,62.58-6.84,122.15,3.39,178.22,32.06,19.23,9.84,37.64,21.3,56.37,32.13a19.32,19.32,0,0,1,7.15,7.07c-12.56-2.87-25.08-5.88-37.68-8.59-31.26-6.71-62.67-12.73-94.66-14.29-25.58-1.25-51.3-2.82-76.8-1.43-32,1.75-63.09,9.69-93.17,21.15-44.68,17-84.71,41.74-121.25,72.34-2.8,2.35-5.35,5-7.94,7.6q-37.82,37.78-75.63,75.59c-2.55,2.54-5.27,4.9-8.66,8.05l-19.6-15.82c9.91-14.11,21.77-25.31,31.35-38.28Z"/><path class="cls-1" d="M468.34,1086.62c5.75-5,11.12-9.8,16.6-14.46,14.42-12.29,28.78-24.65,43.36-36.74,10.9-9,14.24-8.25,22.88,5.58-1.58,1.11-3.5,2.39-5.33,3.77-20.47,15.4-40.88,30.88-61.4,46.22C476.38,1097,476.28,1096.87,468.34,1086.62Z"/><path class="cls-1" d="M514.14,1131.2l58.8-69.09a39.85,39.85,0,0,1,4.46,2.79c10.05,8.92,10.11,11,.64,20.47-16.2,16.22-32.38,32.48-48.68,48.61C523,1140.31,522.08,1140.1,514.14,1131.2Z"/><path class="cls-2" d="M473.93,373.56c-6.1-36.16,5.73-64.59,29.87-88.78,2.19-2.19,3.55-6.1,9.05-2.72-4.94,9.45-10.22,18.81-14.82,28.5-4.83,10.18-9.35,20.53-13.38,31.06C480.8,351.65,477.77,362,473.93,373.56Z"/><path class="cls-2" d="M687.14,371.38c-5.56-15.19-10.52-30.74-16.94-45.67S656,296.65,647.72,280.05c3.87,1.16,6.3,1.15,7.52,2.36C680,307,694,335.59,687.14,371.38Z"/></g></g></svg>